PathFileType	4	(X/Y/Z)	Kaydara	
DataRate	CameraRate	NumFrames	NumMarkers	Units	OrigDataRate	OrigDataStartFrame	OrigNumFrames	
120.00	120.00	4	72	mm	120.00	1	268	
Frame#	Time	Hips			RightUpLeg			RightLeg			RightFoot			RightFoot_End			LeftUpLeg			LeftLeg			LeftFoot			LeftFoot_End			Spine			Spine1			Spine2			Spine3			Neck			Head			Head_End			RightShoulder			RightArm			RightForeArm			RightHand			RightHandThumb1			RightHandThumb2			RightHandThumb3			RightHandThumb3_End			RightInHandIndex			RightHandIndex1			RightHandIndex2			RightHandIndex3			RightHandIndex3_End			RightInHandMiddle			RightHandMiddle1			RightHandMiddle2			RightHandMiddle3			RightHandMiddle3_End			RightInHandRing			RightHandRing1			RightHandRing2			RightHandRing3			RightHandRing3_End			RightInHandPinky			RightHandPinky1			RightHandPinky2			RightHandPinky3			RightHandPinky3_End			LeftShoulder			LeftArm			LeftForeArm			LeftHand			LeftHandThumb1			LeftHandThumb2			LeftHandThumb3			LeftHandThumb3_End			LeftInHandIndex			LeftHandIndex1			LeftHandIndex2			LeftHandIndex3			LeftHandIndex3_End			LeftInHandMiddle			LeftHandMiddle1			LeftHandMiddle2			LeftHandMiddle3			LeftHandMiddle3_End			LeftInHandRing			LeftHandRing1			LeftHandRing2			LeftHandRing3			LeftHandRing3_End			LeftInHandPinky			LeftHandPinky1			LeftHandPinky2			LeftHandPinky3			LeftHandPinky3_End			
		X1	Y1	Z1	X2	Y2	Z2	X3	Y3	Z3	X4	Y4	Z4	X5	Y5	Z5	X6	Y6	Z6	X7	Y7	Z7	X8	Y8	Z8	X9	Y9	Z9	X10	Y10	Z10	X11	Y11	Z11	X12	Y12	Z12	X13	Y13	Z13	X14	Y14	Z14	X15	Y15	Z15	X16	Y16	Z16	X17	Y17	Z17	X18	Y18	Z18	X19	Y19	Z19	X20	Y20	Z20	X21	Y21	Z21	X22	Y22	Z22	X23	Y23	Z23	X24	Y24	Z24	X25	Y25	Z25	X26	Y26	Z26	X27	Y27	Z27	X28	Y28	Z28	X29	Y29	Z29	X30	Y30	Z30	X31	Y31	Z31	X32	Y32	Z32	X33	Y33	Z33	X34	Y34	Z34	X35	Y35	Z35	X36	Y36	Z36	X37	Y37	Z37	X38	Y38	Z38	X39	Y39	Z39	X40	Y40	Z40	X41	Y41	Z41	X42	Y42	Z42	X43	Y43	Z43	X44	Y44	Z44	X45	Y45	Z45	X46	Y46	Z46	X47	Y47	Z47	X48	Y48	Z48	X49	Y49	Z49	X50	Y50	Z50	X51	Y51	Z51	X52	Y52	Z52	X53	Y53	Z53	X54	Y54	Z54	X55	Y55	Z55	X56	Y56	Z56	X57	Y57	Z57	X58	Y58	Z58	X59	Y59	Z59	X60	Y60	Z60	X61	Y61	Z61	X62	Y62	Z62	X63	Y63	Z63	X64	Y64	Z64	X65	Y65	Z65	X66	Y66	Z66	X67	Y67	Z67	X68	Y68	Z68	X69	Y69	Z69	X70	Y70	Z70	X71	Y71	Z71	X72	Y72	Z72	

1	0.0	5446.805	859.65103	-201.189	5544.874173163141	857.842765868583	-233.46162052043664	5390.1448899524985	470.8693534297349	-299.4937837114922	5407.876211912641	36.73378214436961	-342.52985968413503	5310.378029886637	-36.0069423885851	-178.42645680841267	5359.154217282037	834.2562101199376	-154.45839087859449	5239.138586755011	435.03571355790115	-108.27937508100288	5188.784476875427	55.665986657725774	57.00656269050149	5211.449410828506	10.027889370831886	241.48798484606044	5395.266744594511	978.5528669673588	-262.49905383404644	5338.367778983853	1039.39798150403	-312.89658837214785	5271.9257094077075	1094.9763714575415	-365.7349782846558	5199.734867729983	1137.110870200845	-416.44118622454886	5121.865004726332	1182.6843916372436	-467.2113285326553	5079.326900654045	1254.3716693428858	-421.91457151733266	5056.479740787539	1339.0027310367295	-287.80884855674395	5169.007340215523	1174.143912771174	-472.4483685530571	5252.7998450445675	1169.884516352889	-560.8433556823812	5300.378280187864	933.1802320878705	-585.3699029619108	5380.747571685695	792.5097598542098	-655.0866887788168	5379.381840465816	787.9161096561025	-673.8705777188097	5364.081146991839	780.819039058492	-689.1558764157948	5354.998736699399	774.2519840179191	-697.896102995581	5348.772780861545	767.3874603966017	-703.553233034695	5386.863879058314	781.2598380926087	-668.7847858943383	5393.519277364776	759.820118541171	-682.5787192970247	5387.635547063169	747.0948181712107	-692.0829059512442	5376.4080156658765	743.375211748593	-698.420483551458	5362.009057532129	743.1239348646728	-703.9553519021971	5390.41072531479	777.6915803973004	-663.1203366196763	5398.823690887108	754.8492230548238	-673.510645941284	5392.836644565179	740.5648466225219	-683.0893306882707	5379.49894367823	735.8860472538383	-690.355198711888	5363.844932432139	735.5181398468451	-696.2265243165328	5392.865116398055	775.6805418945507	-658.7576637071112	5402.881747671852	753.3547505854619	-664.2567682639823	5398.09170135577	740.5334975185782	-671.7795242126667	5385.453854960277	735.8234421782371	-678.3493438424225	5370.842904330968	735.3841810145503	-683.6619867793389	5394.5685796577245	774.2766624626242	-653.39866965292	5405.2053173942195	752.8024414140414	-655.1137441628931	5401.993242185998	742.0545859661551	-659.8250220850116	5393.076808980704	738.3863450630425	-663.9820943258992	5380.307491027994	737.8633044586705	-668.3227941919619	5125.834292917485	1164.3368007458496	-426.1633300101703	5067.089916245095	1097.6295897200946	-338.93224917688434	5173.658410731019	946.8205527340767	-516.2675809953694	5366.495599492046	845.0518884104647	-508.11053002903554	5351.2321642780535	845.9913547805772	-514.3785776327403	5350.806169442709	841.9088532928953	-544.3945081296771	5352.010384682055	837.3172010198226	-567.3266759167773	5354.298245011359	831.993456159162	-588.1800478229527	5353.951185764267	839.7131893659698	-520.6362104262038	5345.807477087048	825.4845387300677	-554.1969967405515	5346.874962119372	816.096116830221	-586.0510626028436	5350.6446380926145	813.0695833565227	-606.2628193400203	5355.859905575712	812.4601205278146	-623.2673563526427	5358.6368850123	835.4769189736955	-525.3908187282922	5353.226328538609	819.3071728889543	-560.6943448370919	5355.044262931216	808.5503658926363	-595.9825818052657	5359.905650807752	804.6531953590762	-620.6212280227949	5365.7644586172655	803.8668594856653	-639.3507020604222	5362.094952082096	832.8276111348913	-527.8271734397409	5360.071755056906	815.9795245744044	-561.3869677239575	5362.332996548808	806.1060562678616	-592.6302326510819	5367.381577827883	802.0825779556976	-616.654209153389	5373.060641794761	801.2179548763919	-634.3869181140245	5366.790677230608	830.3397701347238	-530.1856467279606	5367.625302178346	813.2831202920928	-562.2086599543529	5370.501050638379	804.6738139599125	-587.8393185256841	5374.698695627159	801.3990095997437	-605.6586497529177	5380.025920827894	800.437385252175	-621.5373843499862
2	0.008	5446.805	859.65103	-201.189	5544.810754922734	857.8742281541471	-233.41181571500067	5390.278772027372	470.852636370924	-299.3844429679188	5408.070164688608	36.80900954094784	-342.47673450988714	5310.695480851247	-35.96356948123279	-178.4249557758513	5359.212405402382	834.2183898954795	-154.5166540193141	5239.223130255324	435.02266187080124	-108.14658819471185	5188.782124156446	55.72144440719339	57.271115300325945	5211.541013177525	10.124801972048077	241.7495916687089	5395.29353383675	978.5788127256079	-262.46509586050746	5338.420533017776	1039.4654780248702	-312.83287647223057	5272.023469818133	1095.1114721920828	-365.64287852381926	5199.878665135295	1137.3137433481565	-416.34131279	5122.0626504585225	1182.9641564228373	-467.10584911022494	5079.575567032619	1254.6763638606733	-421.78985756606323	5056.777191046114	1339.2698529631623	-287.65923064972674	5169.196561156829	1174.4511099158688	-472.3121762468088	5253.0659749194965	1170.3623633430775	-560.5770047187665	5301.002481696771	933.7853799222754	-585.4100730591796	5381.90713288348	793.5635670303732	-655.4286853747901	5380.628638316423	789.0633246482544	-674.1797647531412	5365.432606579	781.985832485055	-689.5038302168068	5356.421820064499	775.4279086701922	-698.2803059095019	5350.254493829394	768.5671449072684	-703.9755707892944	5388.113508185357	782.4071370550954	-669.1195160376416	5394.904671109501	761.060430139839	-682.9566448773185	5389.118870360913	748.3589539503342	-692.5155350709621	5377.944609663527	744.6281580877244	-698.8897608905072	5363.584608683751	744.3500815797319	-704.4567426123303	5391.652358463412	778.821449109351	-663.4798989860997	5400.193418966954	756.06039729279	-673.9257652856387	5394.311742374885	741.7993654139673	-683.5673098708074	5381.037594603542	737.1057931858952	-690.8789123486475	5365.425861946509	736.707943226757	-696.7861146000889	5394.097619776416	776.7961274266107	-659.1334869290985	5404.2210765287	754.5319858306107	-664.6959668406301	5399.521145012946	741.7282360471471	-672.2766637798367	5386.943684215826	737.0024209953916	-678.8922716311816	5372.372051998694	736.5342900029548	-684.2394408269696	5395.786755044624	775.3699048380912	-653.7934103116435	5406.512629189103	753.939841370079	-655.5776805306758	5403.369556424925	743.2012930499355	-660.3399973306259	5394.495640790814	739.5192793689992	-664.5327131308703	5381.760273422838	738.9693540861874	-668.9052901072187	5126.001286056827	1164.5342539073304	-426.087475223211	5067.16902866584	1097.6694964234284	-339.04497349591713	5173.947014511203	947.2081636198715	-516.5890042181097	5366.972746366041	846.0283683055294	-508.35347481254047	5351.7676245810135	847.0814174490818	-514.6465682855157	5351.411179595112	843.078333131981	-544.6423807599206	5352.656275041327	838.5386810263977	-567.5582836187436	5354.971752536621	833.2554578724339	-588.3961671273449	5354.462116456882	840.8062113561801	-520.9026936969416	5346.3541474357535	826.7243942106994	-554.4725624817644	5347.461458546522	817.4147032518392	-586.3100995932575	5351.267484314129	814.415544722477	-606.5001709677762	5356.520655657838	813.814188702817	-623.4790628402236	5359.126736074117	836.5547235155855	-525.649766610112	5353.739632926709	820.5199694186027	-560.9580825238132	5355.5981472212525	809.8465603042955	-596.2272315340559	5360.5020078184	805.981210494323	-620.8392097734084	5366.401618146584	805.2031585910598	-639.5403780794973	5362.568804462941	833.891163197666	-528.080785276948	5360.552169839605	817.1524032549895	-561.640880951456	5362.845804011608	807.3488403399626	-592.8664234063614	5367.933772510909	803.3545767123138	-616.8640999366007	5373.650452036004	802.49704201142	-634.5699206873151	5367.2465835722605	831.3807059395191	-530.4311194879347	5368.075524271254	814.4112589751998	-562.4501295363291	5370.9725397875645	805.8531075851561	-588.064899806784	5375.196654677146	802.5972792691002	-605.864227775953	5380.5559001146	801.6405916229355	-621.7186709743515
3	0.017	5446.805	859.65103	-201.189	5544.745427793197	857.911364376011	-233.36137604253852	5390.408764634014	470.84577001408326	-299.2867334057397	5408.27907754947	36.8969562692875	-342.4255098757679	5311.039656447259	-35.90730834448181	-178.42272070027968	5359.2723364927315	834.1734603044916	-154.57824974189316	5239.308047457448	435.0014635993304	-108.02995355494188	5188.780723491845	55.77320351389691	57.54108722997446	5211.645986017753	10.24363106656502	242.02198834842608	5395.321166802714	978.6106952796753	-262.41939404333397	5338.47666098661	1039.5443136570238	-312.75290973010686	5272.119165102838	1095.2504587201524	-365.5327245678235	5200.0269554488705	1137.5283186111612	-416.22520587930813	5122.272318009538	1183.2647185245353	-466.98637632878797	5079.837822538444	1255.0031467369558	-421.65069001094326	5057.0833763083465	1339.5526396935993	-287.49171308910167	5169.401177407312	1174.7852874087512	-472.1589047258998	5253.373886576012	1170.897862801849	-560.2855267462751	5301.741104879184	934.4236331919597	-585.5024662201782	5383.267726868255	794.6344929799591	-655.9104856110285	5382.100940728694	790.2430628252687	-674.6234574399615	5367.03303820361	783.1899561161724	-689.9997857553725	5358.10813210087	776.6421978605246	-698.8239029891445	5352.009535915938	769.7840774120144	-704.5685058476869	5389.583209400242	783.580616903579	-669.5941059260429	5396.532359837692	762.3298665096529	-683.4875735202653	5390.86101801122	749.6513952454693	-693.1172964829769	5379.750863667198	745.9089823442133	-699.5393869035938	5365.43916557931	745.6038074198797	-705.1485677457096	5393.107666716133	779.9709681612957	-663.9846184463897	5401.795037236014	757.2905617494434	-674.5017247402635	5396.035852494237	743.0511056428529	-684.2243944084433	5382.837891469078	738.3418248057002	-691.5955827039276	5367.278449972899	737.9135013355416	-697.549852325429	5395.538691623488	777.9266889537353	-659.657819194434	5405.780806744123	755.7195904049848	-665.3004776112767	5401.184950192741	742.9309089639758	-672.9556912899527	5388.679549489895	738.1879573033242	-679.6307962837446	5374.156407589212	737.6902323239167	-685.023178844259	5397.207127169382	776.4725355418835	-654.3405778494999	5408.029002719419	755.0790096227836	-656.2116896276356	5404.964556452896	744.3464450002202	-661.0392686007858	5396.140921771794	740.6489897233578	-665.2780868498047	5383.447197021699	740.0711558648975	-669.6922725055152	5126.171461790872	1164.7399754252322	-425.99799360608057	5067.221165293743	1097.6741814101406	-339.1660945856981	5174.247665034468	947.6130867034863	-516.9962091196468	5367.549372857823	847.0528298080144	-508.7102429979101	5352.408343375915	848.2420326338892	-515.0474048658011	5352.130548011518	844.3292371175854	-545.0277327900425	5353.420921972826	839.8466425721875	-567.9294947875135	5355.766024804516	834.6060069059105	-588.7527173560968	5355.070954934772	841.9635548950616	-521.3012421066858	5346.993165691985	828.0411500050975	-554.8978033093284	5348.141407918933	818.815157214087	-586.7234463262827	5351.989211474634	815.8454549018439	-606.8900627320852	5357.2879773378445	815.2532491587795	-623.8387075501106	5359.709651812635	837.6893951746265	-526.0368053996494	5354.337958140173	821.7978709902775	-561.3649399046591	5356.237643336277	811.2122508059265	-596.6194672674486	5361.190230246934	807.38073892765	-621.2023589109084	5367.138914751973	806.611872632071	-639.8700483411144	5363.132377478929	835.0060193376914	-528.4593045171046	5361.1120053761315	818.3792114783233	-562.0306225012669	5363.43793239026	808.6483161397587	-593.2417067713413	5368.570993560864	804.684647158915	-617.2104165395725	5374.332911360609	803.8347806500561	-634.8843267576253	5367.789023828777	832.4659765859661	-530.7967400670371	5368.600651167669	815.5819303852463	-562.819082088438	5371.517939748432	807.0754724423433	-588.4195491177136	5375.772244068382	803.8388172464724	-606.1964310606512	5381.170007701372	802.887114073353	-622.0218473543667
4	0.025	5446.805	859.65103	-201.189	5544.676291363433	857.9513286793155	-233.311825199144	5390.530752178322	470.84631566002616	-299.20062966286866	5408.502544262744	36.995798451816995	-342.37769074454576	5311.409663136546	-35.84009736001357	-178.4214254709624	5359.336068822638	834.1246789974476	-154.6410383924598	5239.394420181051	434.975536655928	-107.92817941664123	5188.780693867243	55.82398462094584	57.81293673407671	5211.761983353488	10.380865042617419	242.29965038468293	5395.349066766302	978.6468872064627	-262.3645423216166	5338.534691189545	1039.6312754848068	-312.6601631720964	5272.210082897772	1095.3883585867966	-365.40834497605755	5200.175078157119	1137.7473506722783	-416.0955689304643	5122.4870388651725	1183.5761252616119	-466.85416385041265	5080.1049222541615	1255.3409611895006	-421.4992676330569	5057.387693665653	1339.8430844427367	-287.31081191294	5169.61259869707	1175.133953949884	-471.9903714323486	5253.704091483433	1171.4679920505355	-559.9688058140367	5302.563736037263	935.0838643661639	-585.6144712399293	5384.770594829573	795.7236363608082	-656.4760390553564	5383.729926887899	791.4554051579919	-675.1433266427298	5368.807446919174	784.4348054143065	-690.578523462863	5359.979259296337	777.9009369059498	-699.4567397980139	5353.957397430093	771.0469121223533	-705.2576530446755	5391.206131331364	784.7813078175493	-670.1499104507664	5398.327544250727	763.6321791154533	-684.1067335658194	5392.7830801024975	750.9795265171374	-693.817113939764	5381.745990826444	747.2277602185765	-700.2938318772275	5367.490845645775	746.8977074026263	-705.9512513565719	5394.712539313932	781.1421937622516	-664.5755951044762	5403.558164749617	758.5449813583995	-675.173511470992	5397.934497631684	744.3294252673355	-684.988675601236	5384.823279336884	739.6068087487072	-692.4279203151935	5369.3250334111435	739.1502674305387	-698.4360169248582	5397.126349995857	779.0749234701664	-660.2717555327812	5407.49515504114	756.9236504862056	-666.0059672808718	5403.014170997454	744.1512966187827	-673.7462557192758	5390.590717376627	739.3930901759875	-680.4893727698354	5376.124298335909	738.8676991197713	-685.9334876242343	5398.770478653934	777.5880265336762	-654.9812922839324	5409.693401376303	756.2269562100304	-656.9519885634544	5406.715325993817	745.5001929693509	-661.8542464912924	5397.948747642594	741.7880927086283	-666.1458434791531	5385.303707151401	741.1837265965673	-670.6076804453821	5126.341149933549	1164.9483753356878	-425.8970248961383	5067.25388276311	1097.6530370864948	-339.29425421532994	5174.555310191705	948.03364442957	-517.4590983143823	5368.192384664941	848.1161774529743	-509.14523945115553	5353.122535125167	849.4595421228478	-515.5377714182563	5352.929518047945	845.6443505008667	-545.5035858213296	5354.267596625617	841.221939177663	-568.391451577599	5356.642771712483	836.0248126900386	-589.1998479437005	5355.746880396873	843.173106335001	-521.7899208830021	5347.695390314803	829.4200613087229	-555.4249536671996	5348.884180200974	820.2808534120935	-587.2409678791021	5352.776596383259	817.3412524458381	-607.3817191348274	5358.125376172306	816.7578716726425	-624.2955463008856	5360.354890151682	838.8703920023153	-526.5121087762925	5354.992243309039	823.1286194954093	-561.8705434444332	5356.9320677630585	812.6333431434151	-597.1126292027249	5361.936506852795	808.8360573135719	-621.6633864250362	5367.938958188348	808.0758309189945	-640.292527882466	5363.754969760623	836.1628187141065	-528.924529322643	5361.72218412123	819.6500860121691	-562.5152847513916	5364.078888506542	809.9932433231231	-593.7134955574608	5369.259730200093	806.060096183191	-617.6501311622478	5375.071143471141	805.2171729805284	-635.2872852139595	5368.387074764991	833.5876308372242	-531.2464574505864	5369.17120652495	816.7876025257922	-563.2782622752806	5372.106631271136	808.3326243288437	-588.8651666889691	5376.392638928186	805.1144492637144	-606.6170804888443	5381.832434867344	804.1667201453578	-622.4090302807818
